<?xml version="1.0" standalone="no"?>
<!DOCTYPE svg PUBLIC "-//W3C//DTD SVG 20010904//EN"
 "http://www.w3.org/TR/2001/REC-SVG-20010904/DTD/svg10.dtd">
<svg version="1.0" xmlns="http://www.w3.org/2000/svg"
 width="512.000000pt" height="512.000000pt" viewBox="0 0 512.000000 512.000000"
 preserveAspectRatio="xMidYMid meet">

<g transform="translate(0.000000,512.000000) scale(0.100000,-0.100000)"
fill="#000000" stroke="none">
<path d="M1395 4751 c-38 -17 -67 -58 -72 -104 l-5 -45 -127 -4 c-113 -3 -131
-6 -177 -30 -80 -42 -136 -120 -149 -208 -7 -52 96 -896 119 -973 39 -131 158
-247 294 -287 41 -13 42 -14 42 -55 0 -23 7 -65 16 -95 31 -104 151 -190 264
-190 l38 0 4 -147 c4 -119 9 -158 25 -200 l21 -53 -542 0 c-630 0 -616 2 -702
-84 -88 -89 -84 -45 -84 -916 0 -869 -4 -828 83 -914 95 -95 -110 -87 2137
-84 l1975 3 45 24 c61 32 97 67 128 126 l27 50 3 775 c2 700 1 779 -14 827
-21 66 -78 133 -141 164 l-48 24 -1271 5 -1270 5 -41 27 c-22 15 -51 44 -64
65 -21 34 -24 52 -27 169 l-4 131 59 5 c145 14 249 119 261 264 l5 62 41 12
c67 20 116 49 173 102 58 56 92 109 117 181 23 70 129 921 121 977 -13 88 -69
166 -149 208 -46 24 -64 27 -177 30 l-127 4 -5 45 c-7 68 -51 108 -117 108
-43 0 -54 -5 -82 -33 l-33 -32 0 -210 0 -210 33 -32 c28 -28 39 -33 82 -33 66
0 110 40 117 109 l6 46 97 0 c71 0 101 -4 109 -14 15 -18 -90 -870 -112 -913
-21 -39 -65 -79 -109 -97 -56 -24 -800 -24 -856 0 -44 18 -88 58 -109 97 -22
43 -127 895 -112 913 8 10 38 14 109 14 l97 0 6 -46 c7 -69 51 -109 117 -109
43 0 54 5 82 33 l33 32 0 210 0 210 -31 31 c-33 33 -92 46 -129 30z m565
-1699 c0 -49 -10 -52 -200 -52 -190 0 -200 3 -200 52 l0 28 200 0 200 0 0 -28z
m2548 -944 c17 -17 17 -1479 0 -1496 -17 -17 -3879 -17 -3896 0 -17 17 -17
1479 0 1496 17 17 3879 17 3896 0z"/>
<path d="M1327 1832 c-9 -9 -39 -71 -67 -137 -77 -180 -59 -165 -203 -165
-137 0 -170 -10 -175 -52 -3 -23 11 -38 112 -119 83 -67 116 -99 116 -114 0
-12 -20 -89 -45 -171 -25 -82 -45 -156 -45 -165 0 -19 31 -49 52 -49 8 0 72
43 141 95 70 52 136 95 147 95 11 0 77 -43 147 -95 69 -52 134 -95 143 -95 20
0 50 31 50 51 0 8 -20 81 -45 163 -25 82 -45 159 -45 171 0 15 33 47 116 114
101 81 115 96 112 119 -5 42 -38 52 -175 52 -144 0 -126 -15 -203 165 -54 127
-73 155 -100 155 -9 0 -24 -8 -33 -18z"/>
<path d="M2527 1832 c-9 -9 -39 -71 -67 -137 -77 -180 -59 -165 -203 -165
-137 0 -170 -10 -175 -52 -3 -23 11 -38 112 -119 83 -67 116 -99 116 -114 0
-12 -20 -89 -45 -171 -25 -82 -45 -156 -45 -165 0 -19 31 -49 52 -49 8 0 72
43 141 95 70 52 136 95 147 95 11 0 77 -43 147 -95 69 -52 134 -95 143 -95 20
0 50 31 50 51 0 8 -20 81 -45 163 -25 82 -45 159 -45 171 0 15 33 47 116 114
101 81 115 96 112 119 -5 42 -38 52 -175 52 -144 0 -126 -15 -203 165 -54 127
-73 155 -100 155 -9 0 -24 -8 -33 -18z"/>
<path d="M3727 1832 c-9 -9 -39 -71 -67 -137 -77 -180 -59 -165 -203 -165
-137 0 -170 -10 -175 -52 -3 -23 11 -38 112 -119 83 -67 116 -99 116 -114 0
-12 -20 -89 -45 -171 -25 -82 -45 -156 -45 -165 0 -19 31 -49 52 -49 8 0 72
43 141 95 70 52 136 95 147 95 11 0 77 -43 147 -95 69 -52 134 -95 143 -95 20
0 50 31 50 51 0 8 -20 81 -45 163 -25 82 -45 159 -45 171 0 15 33 47 116 114
101 81 115 96 112 119 -5 42 -38 52 -175 52 -144 0 -126 -15 -203 165 -54 127
-73 155 -100 155 -9 0 -24 -8 -33 -18z"/>
<path d="M3716 4184 c-182 -44 -337 -201 -381 -385 -55 -233 59 -475 274 -582
40 -20 82 -37 93 -37 19 0 19 -7 16 -183 -3 -180 -4 -184 -30 -224 -35 -54
-80 -80 -158 -92 -88 -14 -125 -50 -125 -121 0 -40 5 -54 29 -79 36 -38 81
-47 159 -33 132 25 257 114 312 222 45 89 55 150 55 337 0 162 1 173 19 173
10 0 52 17 92 37 215 107 329 349 274 582 -66 277 -351 452 -629 385z m215
-241 c77 -25 149 -98 173 -177 68 -217 -128 -416 -349 -352 -108 32 -195 150
-195 265 0 57 26 132 61 174 78 95 192 128 310 90z"/>
</g>
</svg>
